<?xml version="1.0" encoding="utf-8"?>
<!-- Generator: Adobe Illustrator 24.0.0, SVG Export Plug-In . SVG Version: 6.00 Build 0)  -->
<svg version="1.1" id="Layer_1" xmlns="http://www.w3.org/2000/svg" xmlns:xlink="http://www.w3.org/1999/xlink" x="0px" y="0px"
	 viewBox="0 0 85.04 85.04" style="enable-background:new 0 0 85.04 85.04;" xml:space="preserve">
<style type="text/css">
	.st0{opacity:0.73;fill:url(#SVGID_1_);}
	.st1{opacity:0.72;fill:url(#SVGID_2_);}
	.st2{opacity:0.73;fill:url(#SVGID_3_);}
	.st3{opacity:0.72;fill:url(#SVGID_4_);}
	.st4{opacity:0.84;fill:url(#SVGID_5_);}
	.st5{opacity:0.64;fill:url(#SVGID_6_);}
	.st6{opacity:0.64;fill:url(#SVGID_7_);}
	.st7{opacity:0.64;fill:url(#SVGID_8_);}
	.st8{opacity:0.64;fill:url(#SVGID_9_);}
	.st9{opacity:0.64;}
	.st10{fill:none;stroke:#1D1D1B;stroke-width:0.1;stroke-miterlimit:10;}
</style>
<g>
	<g>
		<linearGradient id="SVGID_1_" gradientUnits="userSpaceOnUse" x1="14.122" y1="51.5966" x2="36.3327" y2="35.4438">
			<stop  offset="3.995842e-07" style="stop-color:#014D3E"/>
			<stop  offset="0.1694" style="stop-color:#085849"/>
			<stop  offset="0.4648" style="stop-color:#1C7465"/>
			<stop  offset="0.8485" style="stop-color:#3BA294"/>
			<stop  offset="1" style="stop-color:#49B6A8"/>
		</linearGradient>
		<path class="st0" d="M38.9,40.63c0.93-2.9-0.63-5.98-3.48-6.9C31,32.3,26.05,32.58,21.6,34.9c-5.54,2.89-8.99,8.28-9.74,14.12
			c-0.11,0.88,0.33,1.76,1.1,2.18c5.1,2.79,11.41,3.07,16.95,0.18C34.36,49.05,37.46,45.12,38.9,40.63z"/>
		<linearGradient id="SVGID_2_" gradientUnits="userSpaceOnUse" x1="20.4096" y1="60.6897" x2="35.7429" y2="37.2642">
			<stop  offset="3.995842e-07" style="stop-color:#014D3E"/>
			<stop  offset="0.1694" style="stop-color:#085849"/>
			<stop  offset="0.4648" style="stop-color:#1C7465"/>
			<stop  offset="0.8485" style="stop-color:#3BA294"/>
			<stop  offset="1" style="stop-color:#49B6A8"/>
		</linearGradient>
		<path class="st1" d="M40.12,40.08c-0.26-3.04-2.87-5.26-5.85-4.98c-4.62,0.44-9.07,2.66-12.28,6.56
			c-4.04,4.93-5.14,11.36-3.49,17.09c0.21,0.72,0.83,1.25,1.56,1.33c5.83,0.63,11.86-1.61,15.9-6.54
			C39.16,49.63,40.52,44.78,40.12,40.08z"/>
	</g>
	<g>
		
			<linearGradient id="SVGID_3_" gradientUnits="userSpaceOnUse" x1="-890.8306" y1="51.5966" x2="-868.6199" y2="35.4438" gradientTransform="matrix(-1 0 0 1 -818.3961 0)">
			<stop  offset="3.995842e-07" style="stop-color:#014D3E"/>
			<stop  offset="0.1694" style="stop-color:#085849"/>
			<stop  offset="0.4648" style="stop-color:#1C7465"/>
			<stop  offset="0.8485" style="stop-color:#3BA294"/>
			<stop  offset="1" style="stop-color:#49B6A8"/>
		</linearGradient>
		<path class="st2" d="M47.66,40.63c-0.93-2.9,0.63-5.98,3.48-6.9c4.42-1.43,9.37-1.15,13.82,1.17c5.54,2.89,8.99,8.28,9.74,14.12
			c0.11,0.88-0.33,1.76-1.1,2.18c-5.1,2.79-11.41,3.07-16.95,0.18C52.2,49.05,49.09,45.12,47.66,40.63z"/>
		
			<linearGradient id="SVGID_4_" gradientUnits="userSpaceOnUse" x1="-884.543" y1="60.6897" x2="-869.2097" y2="37.2642" gradientTransform="matrix(-1 0 0 1 -818.3961 0)">
			<stop  offset="3.995842e-07" style="stop-color:#014D3E"/>
			<stop  offset="0.1694" style="stop-color:#085849"/>
			<stop  offset="0.4648" style="stop-color:#1C7465"/>
			<stop  offset="0.8485" style="stop-color:#3BA294"/>
			<stop  offset="1" style="stop-color:#49B6A8"/>
		</linearGradient>
		<path class="st3" d="M46.44,40.08c0.26-3.04,2.87-5.26,5.85-4.98c4.62,0.44,9.07,2.66,12.28,6.56c4.04,4.93,5.14,11.36,3.49,17.09
			c-0.21,0.72-0.83,1.25-1.56,1.33c-5.83,0.63-11.86-1.61-15.9-6.54C47.39,49.63,46.04,44.78,46.44,40.08z"/>
	</g>
	<linearGradient id="SVGID_5_" gradientUnits="userSpaceOnUse" x1="42.9717" y1="13.5036" x2="42.888" y2="22.0607">
		<stop  offset="5.434346e-07" style="stop-color:#49B6A8"/>
		<stop  offset="0.0338" style="stop-color:#45B1A3"/>
		<stop  offset="0.3375" style="stop-color:#288677"/>
		<stop  offset="0.6104" style="stop-color:#136758"/>
		<stop  offset="0.8406" style="stop-color:#065445"/>
		<stop  offset="1" style="stop-color:#014D3E"/>
	</linearGradient>
	<path class="st4" d="M44.48,16.78c0,2.88-0.61,5.4-1.54,6.85c-0.93-1.45-1.54-3.98-1.54-6.85c0-2.88,0.61-5.41,1.54-6.86
		C43.86,11.37,44.48,13.91,44.48,16.78z"/>
	<g>
		
			<linearGradient id="SVGID_6_" gradientUnits="userSpaceOnUse" x1="-907.5277" y1="23.1515" x2="-873.6099" y2="48.1974" gradientTransform="matrix(-0.9994 0.0348 0.0348 0.9994 -829.7935 17.7704)">
			<stop  offset="0" style="stop-color:#014D3E"/>
			<stop  offset="0.2631" style="stop-color:#1A7162"/>
			<stop  offset="0.5823" style="stop-color:#339688"/>
			<stop  offset="0.8393" style="stop-color:#43AE9F"/>
			<stop  offset="1" style="stop-color:#49B6A8"/>
		</linearGradient>
		<path class="st5" d="M56.7,26.79c0.26-0.02,0.52-0.04,0.78-0.09c15.98-2.83,17.12-15.36,17.11-18.92c0-0.57-0.5-1.04-1.05-0.93
			c0,0-0.01,0-0.01,0C51.31,11.28,37.13,30.24,43.75,49C40.07,38.55,46.8,27.44,56.7,26.79z"/>
		
			<linearGradient id="SVGID_7_" gradientUnits="userSpaceOnUse" x1="-867.8502" y1="6.7887" x2="-823.9095" y2="26.0635" gradientTransform="matrix(-0.9821 0.1885 0.1885 0.9821 -773.8292 168.0038)">
			<stop  offset="0" style="stop-color:#014D3E"/>
			<stop  offset="0.2631" style="stop-color:#1A7162"/>
			<stop  offset="0.5823" style="stop-color:#339688"/>
			<stop  offset="0.8393" style="stop-color:#43AE9F"/>
			<stop  offset="1" style="stop-color:#49B6A8"/>
		</linearGradient>
		<path class="st6" d="M77.21,11.06c0,0-0.01,0-0.01,0c-21.52,1.44-37.84,15.71-34.2,35.06c0.04,0,0.08,0,0.12,0.01
			c-1.08-9.57,5.93-18.06,14.95-17.47c0.22,0.01,0.45,0.02,0.67,0.01C75,27.96,77.7,15.66,78.14,12.12
			C78.21,11.56,77.77,11.03,77.21,11.06z"/>
	</g>
	<g>
		
			<linearGradient id="SVGID_8_" gradientUnits="userSpaceOnUse" x1="-772.7443" y1="14.7376" x2="-738.8407" y2="39.7729" gradientTransform="matrix(0.9993 0.0363 -0.0363 0.9993 781.2228 21.509)">
			<stop  offset="0" style="stop-color:#014D3E"/>
			<stop  offset="0.2631" style="stop-color:#1A7162"/>
			<stop  offset="0.5823" style="stop-color:#339688"/>
			<stop  offset="0.8393" style="stop-color:#43AE9F"/>
			<stop  offset="1" style="stop-color:#49B6A8"/>
		</linearGradient>
		<path class="st7" d="M42.53,45.87c0.03,0.03,0.06,0.07,0.09,0.11c4.23-17.74-9.57-34.97-30.6-39.2c0,0-0.01,0-0.01,0
			c-0.55-0.11-1.05,0.36-1.05,0.93c-0.01,3.56,1.11,16.09,17.08,18.95c0.26,0.05,0.52,0.07,0.78,0.09
			C37.74,27.35,44.07,36.44,42.53,45.87z"/>
		
			<linearGradient id="SVGID_9_" gradientUnits="userSpaceOnUse" x1="-736.6827" y1="-18.2605" x2="-692.7397" y2="1.0153" gradientTransform="matrix(0.9821 0.1885 -0.1885 0.9821 725.7215 168.0038)">
			<stop  offset="0" style="stop-color:#014D3E"/>
			<stop  offset="0.2631" style="stop-color:#1A7162"/>
			<stop  offset="0.5823" style="stop-color:#339688"/>
			<stop  offset="0.8393" style="stop-color:#43AE9F"/>
			<stop  offset="1" style="stop-color:#49B6A8"/>
		</linearGradient>
		<path class="st8" d="M42.35,46.46c0.03,0.01,0.05,0.02,0.08,0.04c3.93-19.54-12.46-33.99-34.12-35.44c0,0-0.01,0-0.01,0
			c-0.56-0.03-1,0.5-0.93,1.06c0.44,3.53,3.15,15.84,19.4,16.55c0.22,0.01,0.45,0,0.67-0.01C36.56,28.07,43.63,36.76,42.35,46.46z"
			/>
	</g>
</g>
<g class="st9">
	<path class="st10" d="M13.56,69.61c0,1.49-0.99,2.32-2.15,2.46c-0.39,0.05-0.69,0.06-1.15,0.06H9.1v3.05H7.51v-8.1h2.76
		c0.46,0,0.76,0.01,1.15,0.06C12.63,67.29,13.56,68.12,13.56,69.61z M11.89,69.61c0-0.76-0.39-1.13-0.95-1.21
		c-0.17-0.02-0.42-0.04-0.7-0.04H9.1v2.49h1.14c0.29,0,0.53-0.01,0.7-0.04C11.5,70.74,11.89,70.37,11.89,69.61z"/>
	<path class="st10" d="M15.94,73.14c0,0.25,0,0.41,0.01,0.58c0.03,0.32,0.17,0.42,0.71,0.39v1.12c-0.31,0.04-0.62,0.05-0.98,0.05
		c-0.78,0-1.28-0.29-1.31-1.1c-0.02-0.28-0.02-0.58-0.02-0.99v-6.62h1.59V73.14z"/>
	<path class="st10" d="M23.28,75.18h-1.59v-1.06l-0.47,0.8c-0.45,0.31-0.89,0.42-1.48,0.42c-1.27,0-2.03-0.73-2.17-1.58
		c-0.05-0.32-0.06-0.63-0.06-1.14v-3.69h1.59v3.35c0,0.2,0.01,0.54,0.05,0.86c0.08,0.65,0.45,1.06,1.19,1.06
		c0.8,0,1.35-0.67,1.35-2.08v-3.18h1.59V75.18z"/>
	<path class="st10" d="M29.37,70.75h-1.59c-0.1-0.58-0.42-0.9-0.95-0.9c-0.47,0-0.73,0.28-0.73,0.67c0,0.47,0.38,0.72,1.4,0.97
		c1.26,0.33,2,0.85,2,2c0,1.26-1.12,1.87-2.53,1.87c-1.49,0-2.54-0.66-2.71-2.07h1.59c0.13,0.68,0.59,1,1.14,1
		c0.51,0,0.9-0.22,0.9-0.68c0-0.48-0.4-0.75-1.46-1.02c-1.14-0.29-1.93-0.8-1.93-1.88c0-1.2,0.97-1.92,2.43-1.92
		S29.23,69.61,29.37,70.75z"/>
	<path class="st10" d="M39.09,71.94c0,2.25-1.36,3.4-2.94,3.4c-0.51,0-1.13-0.13-1.44-0.35l-0.4-0.65v0.83h-1.59v-8.63h1.59v3.33
		l0.46-0.68c0.35-0.28,0.97-0.43,1.59-0.43C38.08,68.78,39.09,70.1,39.09,71.94z M37.44,72.05c0-1.28-0.6-2.14-1.55-2.14
		c-0.88,0-1.59,0.55-1.59,2.08v0.29c0,1.42,0.8,1.92,1.53,1.92C36.76,74.21,37.44,73.49,37.44,72.05z"/>
	<path class="st10" d="M45.68,72.48h-4.36c0.1,1.31,0.68,1.73,1.42,1.73c0.68,0,1.18-0.39,1.28-1.06h1.59
		c-0.31,1.46-1.46,2.19-2.91,2.19c-1.68,0-2.99-1.07-2.99-3.26c0-1.91,1.23-3.31,3.11-3.31c1.88,0,2.87,1.46,2.87,3.16
		C45.7,72.09,45.7,72.27,45.68,72.48z M41.37,71.43h2.7c-0.1-0.99-0.54-1.51-1.3-1.51C42.02,69.91,41.5,70.4,41.37,71.43z"/>
	<path class="st10" d="M46.44,72.32V71.4h2.68v0.92H46.44z"/>
	<path class="st10" d="M54.84,70.75h-1.59c-0.1-0.58-0.42-0.9-0.95-0.9c-0.47,0-0.73,0.28-0.73,0.67c0,0.47,0.38,0.72,1.4,0.97
		c1.26,0.33,2,0.85,2,2c0,1.26-1.12,1.87-2.53,1.87c-1.49,0-2.54-0.66-2.71-2.07h1.59c0.13,0.68,0.59,1,1.14,1
		c0.51,0,0.9-0.22,0.9-0.68c0-0.48-0.4-0.75-1.46-1.02c-1.14-0.29-1.93-0.8-1.93-1.88c0-1.2,0.97-1.92,2.43-1.92
		C53.87,68.78,54.7,69.61,54.84,70.75z"/>
	<path class="st10" d="M65.12,71.46v3.72h-1.59v-3.25c0-0.36-0.01-0.7-0.05-1.02c-0.08-0.65-0.43-1-1.04-1
		c-0.71,0-1.12,0.62-1.12,2.07v3.2h-1.58v-3.25c0-0.36-0.01-0.7-0.05-1.02c-0.08-0.65-0.44-1-1.05-1c-0.72,0-1.11,0.62-1.11,2.07
		v3.2h-1.59v-6.24h1.59v0.95l0.45-0.75c0.35-0.25,0.75-0.36,1.3-0.36c1,0,1.64,0.5,1.88,1.19l0.6-0.82
		c0.35-0.25,0.76-0.36,1.31-0.36c1.16,0,1.83,0.69,1.97,1.55C65.1,70.64,65.12,70.96,65.12,71.46z"/>
	<path class="st10" d="M68.19,67.47c0,0.52-0.36,0.86-0.88,0.86c-0.52,0-0.88-0.34-0.88-0.86c0-0.5,0.36-0.86,0.88-0.86
		C67.83,66.62,68.19,66.97,68.19,67.47z M66.51,75.18v-6.24h1.59v6.24H66.51z"/>
	<path class="st10" d="M71.13,73.14c0,0.25,0,0.41,0.01,0.58c0.03,0.32,0.17,0.42,0.71,0.39v1.12c-0.31,0.04-0.62,0.05-0.98,0.05
		c-0.78,0-1.28-0.29-1.31-1.1c-0.02-0.28-0.02-0.58-0.02-0.99v-6.62h1.59V73.14z"/>
	<path class="st10" d="M78.35,72.48h-4.36c0.1,1.31,0.68,1.73,1.42,1.73c0.68,0,1.18-0.39,1.28-1.06h1.59
		c-0.31,1.46-1.46,2.19-2.91,2.19c-1.68,0-2.99-1.07-2.99-3.26c0-1.91,1.23-3.31,3.11-3.31c1.88,0,2.87,1.46,2.87,3.16
		C78.37,72.09,78.37,72.27,78.35,72.48z M74.04,71.43h2.7c-0.1-0.99-0.54-1.51-1.3-1.51C74.69,69.91,74.17,70.4,74.04,71.43z"/>
</g>
</svg>
