<svg xmlns="http://www.w3.org/2000/svg" xmlns:xlink="http://www.w3.org/1999/xlink" width="77" height="77" viewBox="0 0 77 77">
  <defs>
    <linearGradient id="linear-gradient" x2="1" y2="1" gradientUnits="objectBoundingBox">
      <stop offset="0" stop-color="#014d3e"/>
      <stop offset="1" stop-color="#49b6a8"/>
    </linearGradient>
  </defs>
  <g id="Group_1098" data-name="Group 1098" transform="translate(-931.272 -3769.272)">
    <path id="Rectangle_1" data-name="Rectangle 1" d="M38.5,0h0A38.5,38.5,0,0,1,77,38.5v0A38.5,38.5,0,0,1,38.5,77H10.744A10.744,10.744,0,0,1,0,66.256V38.5A38.5,38.5,0,0,1,38.5,0Z" transform="translate(931.272 3769.272)" fill="url(#linear-gradient)"/>
    <g id="Icon_feather-arrow-left" data-name="Icon feather-arrow-left" transform="matrix(-0.616, 0.788, -0.788, -0.616, 983.89, 3805.824)">
      <path id="Path_6" data-name="Path 6" d="M20.388,0H0" transform="translate(0 10.194)" fill="none" stroke="#e0f2f1" stroke-linecap="round" stroke-linejoin="round" stroke-width="2"/>
      <path id="Path_7" data-name="Path 7" d="M10.194,20.388,0,10.194,10.194,0" transform="translate(0 0)" fill="none" stroke="#e0f2f1" stroke-linecap="round" stroke-linejoin="round" stroke-width="2"/>
    </g>
  </g>
</svg>
